<svg xmlns="http://www.w3.org/2000/svg" version="1.1" viewBox="-5.0 -10.0 110.0 135.0">
 <path d="m37.754 94.395v-56.219c0-1.2656 1.0273-2.2969 2.2969-2.2969h19.898c1.2695 0 2.2969 1.0273 2.2969 2.2969v56.219h19.266c1.2695 0 2.2969 1.0273 2.2969 2.2969 0 1.2695-1.0273 2.2969-2.2969 2.2969h-63.023c-1.2695 0-2.2969-1.0273-2.2969-2.2969 0-1.2695 1.0273-2.2969 2.2969-2.2969zm19.898 0v-53.918h-15.305v53.918zm2.8164-75.73c0 2.8906-1.1719 5.5078-3.0664 7.4023-1.8945 1.8945-4.5117 3.0664-7.4023 3.0664s-5.5078-1.1719-7.4023-3.0664c-1.8945-1.8945-3.0664-4.5117-3.0664-7.4023 0-6.8477 3.5508-10.918 8.3594-16.422l0.38281-0.44141c0.83203-0.94922 2.2773-1.0469 3.2266-0.21484 0.085938 0.074218 0.16016 0.15234 0.23438 0.23828l0.36719 0.42188c4.8086 5.5078 8.3594 9.5742 8.3594 16.422zm-6.3164 4.1562c1.0664-1.0625 1.7227-2.5312 1.7227-4.1562 0-4.5781-2.4219-7.8594-5.8789-11.871-3.4531 4.0117-5.8789 7.293-5.8789 11.871 0 1.6211 0.65625 3.0938 1.7227 4.1562 1.0625 1.0625 2.5312 1.7227 4.1562 1.7227 1.6211 0 3.0938-0.65625 4.1562-1.7227z"/></svg>