<svg xmlns="http://www.w3.org/2000/svg" viewBox="0 0 24 24" fill="none" x="0px" y="0px"><path fill-rule="evenodd" clip-rule="evenodd" d="M12 2.5C6.75329 2.5 2.5 6.75329 2.5 12C2.5 17.2467 6.75329 21.5 12 21.5C17.2467 21.5 21.5 17.2467 21.5 12C21.5 6.75329 17.2467 2.5 12 2.5ZM1.5 12C1.5 6.20101 6.20101 1.5 12 1.5C17.799 1.5 22.5 6.20101 22.5 12C22.5 17.799 17.799 22.5 12 22.5C6.20101 22.5 1.5 17.799 1.5 12Z" fill="black"/><path fill-rule="evenodd" clip-rule="evenodd" d="M12.5 10.0704V5H11.5V12C11.5 12.2278 11.654 12.4269 11.8746 12.484C12.0951 12.5412 12.3264 12.442 12.4371 12.2428L14.9371 7.74282L14.0629 7.25718L12.5 10.0704Z" fill="black"/></svg>