<svg xmlns:inkscape="http://www.inkscape.org/namespaces/inkscape" xmlns:sodipodi="http://sodipodi.sourceforge.net/DTD/sodipodi-0.dtd" xmlns="http://www.w3.org/2000/svg" xmlns:svg="http://www.w3.org/2000/svg" version="1.1" viewBox="0 0 66.666664 83.33332999999999" xml:space="preserve" x="0px" y="0px"><g transform="translate(-433.33334)"><path clip-rule="evenodd" d="m 445.45573,29.893982 c 1.68945,-1.152343 2.53906,-2.661133 2.39257,-6.113281 v -8.876953 c -0.0146,-1.240235 -2.26562,-1.391602 -2.37792,0 l -0.0879,7.202148 c -0.005,1.347657 -2.03125,1.391602 -2.02636,0 l 0.0879,-7.446289 c -0.0244,-1.333008 -2.17285,-1.464844 -2.20215,0 0,2.06543 -0.0879,5.38086 -0.0879,7.446289 0.10742,1.303711 -1.77246,1.47461 -1.72363,0 l 0.0928,-7.402344 c -0.0488,-1.005859 -1.15234,-1.362304 -1.9043,-0.893554 -0.80078,0.512695 -0.63965,1.538086 -0.67383,2.402343 l -0.27832,8.496094 c 0.0439,2.470704 0.69336,4.477539 2.62696,5.332032 0.29297,0.126953 0.70312,0.229492 1.17676,0.302734 l -0.66895,20.712891 c -0.0391,1.230468 0.9668,2.231445 2.14355,2.231445 h 0.26856 c 1.32812,0 2.44629,-1.132813 2.41211,-2.514648 l -0.58597,-20.439454 c 0.61524,-0.09766 1.12793,-0.239257 1.41602,-0.439453 z m 46.5625,5.283203 h 0.72265 c 0,5.288086 -0.0195,11.396485 -0.19043,16.660157 -0.0732,2.016601 3.70606,1.938476 3.6377,-0.209961 l -0.1416,-16.450196 h 0.62011 v -21.80664 c -7.80273,1.196289 -5.1123,16.303711 -4.64843,21.80664 z m -3.8086,-1.733398 c 0,5.327148 -1.875,9.873047 -5.625,13.62793 -3.75976,3.759765 -8.30078,5.639648 -13.62793,5.639648 -5.30273,0 -9.84863,-1.875 -13.61328,-5.639648 -3.75976,-3.754883 -5.64941,-8.300782 -5.64941,-13.62793 0,-5.3125 1.88476,-9.838867 5.64941,-13.603516 3.77442,-3.759766 8.31055,-5.649414 13.61328,-5.649414 5.32715,0 9.86817,1.884766 13.62793,5.649414 3.74512,3.759766 5.625,8.291016 5.625,13.603516 z m -8.04199,-0.01953 c 0,3.105468 -1.08887,5.751953 -3.28613,7.949218 -2.1875,2.1875 -4.83887,3.286133 -7.93946,3.286133 -3.08105,0 -5.72753,-1.098633 -7.91992,-3.286133 -2.19238,-2.197265 -3.28613,-4.84375 -3.28613,-7.949218 0,-3.081055 1.09375,-5.727539 3.28613,-7.915039 2.19727,-2.1875 4.83887,-3.286133 7.91992,-3.286133 6.23047,0.0098 11.22559,4.960937 11.22559,11.201172 z m -1.41601,-9.770508 c -2.7002,-2.700195 -5.97168,-4.042969 -9.80958,-4.042969 -3.82812,0 -7.08984,1.342774 -9.7705,4.042969 -2.7002,2.700195 -4.05762,5.961914 -4.05762,9.770508 0,3.823242 1.35742,7.080078 4.05762,9.794922 2.68554,2.705078 5.94238,4.0625 9.7705,4.0625 3.83301,0 7.1045,-1.357422 9.80958,-4.0625 2.69042,-2.709961 4.04296,-5.97168 4.04296,-9.794922 0,-3.813477 -1.34765,-7.070313 -4.04296,-9.770508 z" fill-rule="evenodd" style="" stroke-width="0.488281"/></g></svg>